Coordinates
version=1
nRows=24
nColumns=38
inDegrees=no

Units are S.I. units (second, meters, Newtons, ...)
If the header above contains a line with 'inDegrees', this indicates whether rotational values are in degrees (yes) or radians (no).

endheader
time	pelvis_tilt	pelvis_list	pelvis_rotation	pelvis_tx	pelvis_ty	pelvis_tz	hip_flexion_r	hip_adduction_r	hip_rotation_r	knee_angle_r	ankle_angle_r	subtalar_angle_r	mtp_angle_r	hip_flexion_l	hip_adduction_l	hip_rotation_l	knee_angle_l	ankle_angle_l	subtalar_angle_l	mtp_angle_l	lumbar_extension	lumbar_bending	lumbar_rotation	arm_flex_r	arm_add_r	arm_rot_r	elbow_flex_r	pro_sup_r	wrist_flex_r	wrist_dev_r	arm_flex_l	arm_add_l	arm_rot_l	elbow_flex_l	pro_sup_l	wrist_flex_l	wrist_dev_l
0	0.15851	1.48409	-1.57086	1.05291	1.79307	0.908447	0.35518	-0.0774852	-0.397644	0.263406	0.054893	0	0	-0.367838	-0.0381364	-0.17474	0.293083	0.346229	0	0	-0.241482	0.0173248	-0.271173	-0.192561	-0.224901	0.0925556	0.892876	0.412852	0	0	0.118058	-0.434331	0.222897	0.740622	1.27691	0	0
0.01	0.153621	1.48671	-1.56579	1.0523	1.78157	0.90872	0.343657	-0.0718704	-0.3225	0.261575	0.0385601	0	0	-0.358145	-0.0461904	-0.176613	0.330236	0.336337	0	0	-0.237495	0.0211416	-0.270975	-0.193596	-0.224841	0.0898737	0.889217	0.412626	0	0	0.115858	-0.428912	0.225771	0.736552	1.27496	0	0
0.02	0.105599	1.48629	-1.51756	1.05139	1.76918	0.9095	0.339568	-0.0661866	-0.318097	0.279028	0.0304503	0	0	-0.348276	-0.0607127	-0.185287	0.375654	0.324012	0	0	-0.235058	0.0284168	-0.271281	-0.195355	-0.225108	0.0880348	0.885213	0.41247	0	0	0.109495	-0.423623	0.226167	0.733828	1.27242	0	0
0.03	0.0311826	1.48484	-1.44065	1.05044	1.75631	0.910444	0.346575	-0.0653115	-0.391458	0.320611	0.0372749	0	0	-0.333425	-0.0811314	-0.195659	0.431639	0.307316	0	0	-0.23191	0.038141	-0.273467	-0.198628	-0.225589	0.0867956	0.881666	0.411664	0	0	0.100823	-0.418634	0.226596	0.731984	1.26832	0	0
0.04	-0.0261546	1.48559	-1.38494	1.04923	1.74396	0.911458	0.343945	-0.0602385	-0.39099	0.340629	0.0413648	0	0	-0.313199	-0.0970907	-0.199581	0.488224	0.279978	0	0	-0.227521	0.0456031	-0.271817	-0.200842	-0.226813	0.0867083	0.878192	0.410561	0	0	0.0931676	-0.412815	0.226651	0.729585	1.26613	0	0
0.05	-0.117412	1.4885	-1.29701	1.04767	1.73188	0.91228	0.342848	-0.0515358	-0.391216	0.356235	0.0465794	0	0	-0.28347	-0.116541	-0.203801	0.554531	0.245683	0	0	-0.220315	0.0548387	-0.268274	-0.202743	-0.228752	0.0875479	0.875183	0.408427	0	0	0.0850892	-0.406876	0.226933	0.72783	1.26444	0	0
0.06	-0.247086	1.49494	-1.174	1.04598	1.72057	0.912782	0.338561	-0.0363415	-0.33285	0.355324	0.0415151	0	0	-0.243549	-0.1359	-0.205203	0.626118	0.202671	0	0	-0.209594	0.0651954	-0.261447	-0.203387	-0.232442	0.0899794	0.873234	0.405052	0	0	0.0780562	-0.399629	0.227444	0.72437	1.26277	0	0
0.07	-0.409024	1.49858	-1.0154	1.04408	1.70831	0.912963	0.34318	-0.0261265	-0.392304	0.368818	0.0550672	0	0	-0.203109	-0.159596	-0.20342	0.6977	0.15043	0	0	-0.19645	0.0760981	-0.257602	-0.208331	-0.236704	0.095449	0.874356	0.393751	0	0	0.0673028	-0.394854	0.231482	0.722913	1.25632	0	0
0.08	-0.561868	1.50031	-0.868576	1.04219	1.69659	0.913323	0.337834	-0.0116914	-0.391477	0.36603	0.0590279	0	0	-0.164019	-0.178634	-0.196248	0.76365	0.094739	0	0	-0.18592	0.0860399	-0.250857	-0.212568	-0.241514	0.0993232	0.87706	0.388531	0	0	0.0580968	-0.389765	0.235782	0.722224	1.25376	0	0
0.09	-0.716107	1.50058	-0.721187	1.04026	1.68497	0.913546	0.33189	0.00332227	-0.388267	0.362109	0.0647235	0	0	-0.124465	-0.19653	-0.187989	0.827857	0.0391042	0	0	-0.175372	0.0955435	-0.24312	-0.217576	-0.247046	0.103461	0.881757	0.382233	0	0	0.0488252	-0.385147	0.241693	0.722372	1.25129	0	0
0.1	-0.852987	1.49884	-0.592828	1.03838	1.6739	0.914	0.319948	0.0210298	-0.336015	0.35058	0.062171	0	0	-0.0858794	-0.212267	-0.179311	0.889414	-0.0109931	0	0	-0.167744	0.105008	-0.233341	-0.221045	-0.252547	0.105808	0.886469	0.378093	0	0	0.0418441	-0.379528	0.247175	0.721571	1.25022	0	0
0.11	-0.936186	1.49495	-0.515398	1.03633	1.6621	0.914462	0.314598	0.0327867	-0.374879	0.356755	0.0814516	0	0	-0.052139	-0.228858	-0.17222	0.946849	-0.0509569	0	0	-0.161544	0.112312	-0.226094	-0.227423	-0.257355	0.109519	0.893525	0.36589	0	0	0.0326199	-0.377672	0.258138	0.72349	1.24379	0	0
0.12	-0.955971	1.4906	-0.502792	1.03442	1.65084	0.915642	0.300145	0.044866	-0.365396	0.355179	0.0906012	0	0	-0.0248892	-0.24042	-0.166483	0.995875	-0.0680843	0	0	-0.161725	0.117501	-0.217279	-0.230645	-0.260669	0.109635	0.897202	0.364162	0	0	0.0256934	-0.374318	0.263729	0.723889	1.24425	0	0
0.13	-0.957915	1.48637	-0.508571	1.03268	1.64016	0.917272	0.279682	0.0579856	-0.310529	0.346048	0.0888705	0	0	0.000515855	-0.248882	-0.160882	1.03894	-0.0711453	0	0	-0.16467	0.121742	-0.207394	-0.231934	-0.263746	0.109206	0.899438	0.362147	0	0	0.0213971	-0.370471	0.270369	0.723318	1.2447	0	0
0.14	-0.893669	1.48288	-0.577887	1.03076	1.62884	0.919188	0.263189	0.0625239	-0.344073	0.351037	0.108502	0	0	0.018988	-0.254217	-0.155949	1.07593	-0.0644482	0	0	-0.170597	0.120219	-0.199929	-0.234839	-0.26379	0.107556	0.90051	0.357328	0	0	0.0158676	-0.370509	0.281694	0.724194	1.24355	0	0
0.15	-0.835545	1.48112	-0.642837	1.02885	1.61814	0.921325	0.243098	0.0670742	-0.334045	0.347975	0.117648	0	0	0.0395233	-0.25599	-0.150452	1.11135	-0.0499887	0	0	-0.176714	0.116739	-0.19152	-0.234846	-0.262999	0.105728	0.897872	0.356679	0	0	0.011346	-0.36868	0.287942	0.722286	1.24607	0	0
0.16	-0.798768	1.48082	-0.688549	1.02703	1.60805	0.92354	0.220641	0.0726665	-0.280752	0.336974	0.113664	0	0	0.0631601	-0.255649	-0.145406	1.14341	-0.0319064	0	0	-0.181641	0.113046	-0.181376	-0.23309	-0.262397	0.103585	0.893249	0.355967	0	0	0.00814134	-0.36557	0.294571	0.718668	1.25017	0	0
0.17	-0.747948	1.48163	-0.746609	1.02518	1.59777	0.925669	0.200415	0.0748785	-0.269124	0.327694	0.118778	0	0	0.0858576	-0.253346	-0.140584	1.16842	-0.0152044	0	0	-0.185706	0.106669	-0.173387	-0.232286	-0.260289	0.101141	0.887391	0.355181	0	0	0.00344986	-0.363853	0.30072	0.715923	1.25494	0	0
0.18	-0.685486	1.48442	-0.812862	1.02345	1.58727	0.927484	0.186554	0.0716814	-0.310199	0.326557	0.139091	0	0	0.109862	-0.248051	-0.133635	1.18751	-0.00105092	0	0	-0.187285	0.097484	-0.169842	-0.232627	-0.256408	0.0982236	0.880417	0.354052	0	0	-0.003958	-0.364312	0.306171	0.714983	1.26495	0	0
0.19	-0.638369	1.48719	-0.864864	1.02186	1.57732	0.929361	0.168872	0.0710631	-0.305509	0.316635	0.144348	0	0	0.135284	-0.242876	-0.127925	1.20136	0.0109898	0	0	-0.18886	0.08988	-0.165476	-0.232131	-0.254039	0.0979207	0.874544	0.352908	0	0	-0.0106647	-0.362892	0.308351	0.713087	1.26801	0	0
0.2	-0.59428	1.49068	-0.913562	1.02032	1.56749	0.93108	0.152401	0.069991	-0.301432	0.306475	0.148637	0	0	0.161422	-0.23709	-0.122961	1.21023	0.0207629	0	0	-0.189242	0.0820103	-0.161523	-0.232014	-0.251877	0.0989152	0.868742	0.351745	0	0	-0.0176696	-0.361644	0.310551	0.711737	1.27174	0	0
0.21	-0.546536	1.49433	-0.965987	1.01883	1.55776	0.932704	0.136084	0.0686006	-0.29731	0.295663	0.152183	0	0	0.186903	-0.230845	-0.119516	1.21387	0.028021	0	0	-0.189311	0.073947	-0.157236	-0.232677	-0.250168	0.10034	0.863641	0.350308	0	0	-0.0245573	-0.360425	0.313305	0.710762	1.2763	0	0
0.22	-0.491763	1.49775	-1.02504	1.0175	1.54813	0.934287	0.118773	0.0671519	-0.292951	0.28272	0.155053	0	0	0.211327	-0.224078	-0.117236	1.21261	0.0333617	0	0	-0.189606	0.0660188	-0.152999	-0.234099	-0.249018	0.102421	0.859532	0.348481	0	0	-0.031002	-0.358887	0.315898	0.709314	1.27998	0	0
0.23	-0.427427	1.50062	-1.09407	1.01619	1.53851	0.935843	0.100858	0.0653833	-0.28829	0.269407	0.157873	0	0	0.233924	-0.21733	-0.117573	1.20644	0.0383645	0	0	-0.190354	0.0579648	-0.148161	-0.236226	-0.248274	0.105203	0.856354	0.346055	0	0	-0.0372185	-0.357045	0.318131	0.708519	1.28239	0	0
